<?xml version="1.0" standalone="no"?>
<!DOCTYPE svg PUBLIC "-//W3C//DTD SVG 20010904//EN"
 "http://www.w3.org/TR/2001/REC-SVG-20010904/DTD/svg10.dtd">
<svg version="1.0" xmlns="http://www.w3.org/2000/svg"
 width="256.000000pt" height="256.000000pt" viewBox="0 0 256.000000 256.000000"
 preserveAspectRatio="xMidYMid meet">

<g transform="translate(0.000000,256.000000) scale(0.100000,-0.100000)"
fill="#000000" stroke="none">
<path d="M1120 2270 c0 -5 -7 -10 -16 -10 -20 0 -44 -24 -44 -44 0 -9 -4 -16
-10 -16 -6 0 -10 -133 -10 -380 l0 -380 46 0 c47 0 74 -16 74 -44 0 -23 -33
-20 -50 4 -8 12 -26 20 -42 20 l-28 0 0 -80 0 -80 40 0 c22 0 40 5 40 10 0 6
9 10 20 10 13 0 20 -7 20 -20 0 -13 -7 -20 -20 -20 -11 0 -20 -4 -20 -10 0 -5
-18 -10 -40 -10 l-40 0 0 -130 c0 -80 -4 -130 -10 -130 -5 0 -10 14 -10 30 0
17 -4 30 -10 30 -6 0 -10 30 -10 70 0 40 -4 70 -10 70 -16 0 -13 277 3 284 10
5 10 7 0 12 -7 3 -13 12 -13 21 0 21 -25 43 -50 43 -11 0 -32 -11 -45 -25 -23
-23 -25 -31 -25 -130 l0 -105 30 0 30 0 0 90 c0 83 1 90 20 90 19 0 20 -7 20
-100 0 -93 -1 -100 -20 -100 -11 0 -20 -4 -20 -10 0 -5 -13 -10 -30 -10 l-30
0 0 -60 c0 -33 4 -60 10 -60 6 0 10 -27 10 -60 0 -33 4 -60 10 -60 6 0 10 -13
10 -30 0 -16 5 -30 10 -30 6 0 10 -13 10 -30 0 -16 5 -30 10 -30 6 0 10 -7 10
-15 0 -20 85 -105 105 -105 8 0 15 -4 15 -10 0 -6 80 -10 220 -10 140 0 220 4
220 10 0 6 7 10 15 10 20 0 85 65 85 85 0 8 5 15 10 15 6 0 10 9 10 20 0 11 5
20 10 20 6 0 10 14 10 30 0 17 5 30 10 30 6 0 10 23 10 50 0 28 5 50 10 50 6
0 10 37 10 90 l0 90 -30 0 c-16 0 -30 5 -30 10 0 6 -9 10 -20 10 -13 0 -20 7
-20 20 0 13 7 20 20 20 11 0 20 -4 20 -10 0 -5 14 -10 30 -10 27 0 30 3 30 30
0 27 -3 30 -30 30 -16 0 -30 5 -30 10 0 6 -9 10 -20 10 -16 0 -20 7 -20 36 0
45 19 64 64 64 29 0 36 4 36 20 0 11 -4 20 -10 20 -5 0 -10 9 -10 20 0 17 -7
20 -40 20 -33 0 -40 -3 -40 -20 0 -11 -4 -20 -10 -20 -6 0 -10 -70 -10 -190 0
-120 -4 -190 -10 -190 -6 0 -10 -27 -10 -60 0 -33 -4 -60 -10 -60 -5 0 -10
-13 -10 -30 0 -16 -4 -30 -10 -30 -6 0 -10 67 -10 180 l0 180 -40 0 c-38 0
-40 -2 -40 -30 0 -23 -4 -30 -20 -30 -18 0 -20 7 -20 75 0 73 1 77 35 110 21
22 44 35 60 35 l25 0 0 385 0 386 -35 34 c-26 27 -43 35 -70 35 -19 0 -35 -4
-35 -10 0 -5 -9 -10 -20 -10 -13 0 -20 -7 -20 -20 0 -11 -4 -20 -10 -20 -6 0
-10 -137 -10 -390 l0 -390 30 0 c35 0 38 -10 10 -30 -11 -8 -20 -21 -20 -29 0
-7 -10 -22 -21 -32 l-21 -18 41 -40 c45 -43 53 -71 21 -71 -11 0 -20 5 -20 10
0 6 -7 10 -16 10 -18 0 -44 23 -44 40 0 12 -24 40 -34 40 -3 0 -6 -22 -6 -50
0 -43 -3 -50 -20 -50 -19 0 -20 7 -20 110 0 103 1 110 20 110 17 0 20 -7 20
-40 0 -22 2 -40 5 -40 3 0 18 12 33 27 17 17 22 28 14 31 -9 3 -12 93 -12 383
0 246 -4 379 -10 379 -5 0 -10 11 -10 25 0 38 -42 75 -85 75 -19 0 -35 -4 -35
-10z"/>
<path d="M1633 1405 c-23 -26 -15 -45 17 -45 27 0 30 3 30 30 0 33 -25 41 -47
15z"/>
<path d="M1443 1375 c-36 -38 -30 -55 17 -55 36 0 40 2 40 26 0 21 -20 56 -32
53 -2 0 -13 -11 -25 -24z"/>
<path d="M1200 650 c0 -5 -7 -10 -15 -10 -20 0 -65 -45 -65 -65 0 -8 -4 -15
-10 -15 -6 0 -10 -33 -10 -80 0 -47 4 -80 10 -80 6 0 10 -7 10 -15 0 -20 45
-65 65 -65 8 0 15 -4 15 -10 0 -6 32 -10 75 -10 l76 0 44 45 c25 24 45 51 45
60 0 8 5 15 10 15 6 0 10 27 10 60 0 33 -4 60 -10 60 -5 0 -10 7 -10 15 0 9
-20 36 -45 60 l-44 45 -76 0 c-43 0 -75 -4 -75 -10z"/>
</g>
</svg>
